# xmcd CD database file
# Copyright (C) 1997 Ti Kan
# 
# Track frame offsets:
#     150
#     12895
#     29075
#     43262
#     57762
#     72267
#     88712
#     106000
#     122840
#     137175
#     151280
#     171070
#     184582
#     199477
#     216942
#     232607
# 
# Disc length: 3390 seconds
# 
# Revision: 1
# Processed by: cddbd v1.4b41PL1 Copyright (c) Steve Scherf et al.
# Submitted via: DiscPlay 4.0.2
# 
DISCID=dc0d3c10
DTITLE=Yvonne Elliman - The Best of Yvonne Elliman
DYEAR=1900
DGENRE=
TTITLE0=Everything's Alright
TTITLE1=I Don't Know How to Love Him
TTITLE2=Can't Find My Way Home
TTITLE3=I Can't Explain
TTITLE4=From the Inside
TTITLE5=Best of My Love
TTITLE6=Somewhere in the Night
TTITLE7=Love Me
TTITLE8=Hello Stranger
TTITLE9=I Can't Get You Outa My Mind
TTITLE10=Baby Don't Let it Mess Your Mind
TTITLE11=If I Can't Have You
TTITLE12=Moment by Moment
TTITLE13=Love Pains
TTITLE14=Savannah
TTITLE15=Can't Find My Way Home (version 2)
EXTD=
EXTT0=
EXTT1=
EXTT2=
EXTT3=
EXTT4=
EXTT5=
EXTT6=
EXTT7=
EXTT8=
EXTT9=
EXTT10=
EXTT11=
EXTT12=
EXTT13=
EXTT14=
EXTT15=
PLAYORDER=
